<?xml version="1.0" encoding="UTF-8" standalone="no"?><!DOCTYPE svg PUBLIC "-//W3C//DTD SVG 1.1//EN" "http://www.w3.org/Graphics/SVG/1.1/DTD/svg11.dtd"><!-- Generated by graphviz version 2.40.1 (20161225.0304)
 --><!-- Title: roadmap Pages: 1 --><svg xmlns="http://www.w3.org/2000/svg" xmlns:xlink="http://www.w3.org/1999/xlink" width="1324pt" height="475pt" viewBox="0.00 0.00 1324.35 474.82">
<g id="graph0" class="graph" transform="scale(1 1) rotate(0) translate(4 470.822)">
<title>roadmap</title>
<g id="a_graph0"><a xlink:href="https://github.com/Suraj520/data-science" xlink:title="&lt;b&gt;Roadmap to Data Science&lt;/b&gt;&lt;br /&gt;&lt;br /&gt;&lt;font point-size=&quot;15&quot;&gt;(https://github.com/Suraj520/data-science)&lt;/font&gt;">
<polygon fill="#f5f5f5" stroke="transparent" points="-4,4 -4,-470.822 1320.3519,-470.822 1320.3519,4 -4,4"/>
<text text-anchor="start" x="529.807" y="-44.2" font-family="Helvetica,sans-Serif" font-weight="bold" font-size="22.00" fill="#2c3e50">Roadmap to Data Science</text>
<text text-anchor="start" x="517.3087" y="-6.5" font-family="Helvetica,sans-Serif" font-size="15.00" fill="#2c3e50">(https://github.com/Suraj520/data-science)</text>
</a>
</g>
<!-- node07 -->
<g id="node1" class="node">
<title>node07</title>
<path fill="#f48fb1" stroke="#000000" stroke-width="2" d="M140.0504,-389.822C140.0504,-389.822 11.9832,-389.822 11.9832,-389.822 5.9832,-389.822 -.0168,-383.822 -.0168,-377.822 -.0168,-377.822 -.0168,-343.822 -.0168,-343.822 -.0168,-337.822 5.9832,-331.822 11.9832,-331.822 11.9832,-331.822 140.0504,-331.822 140.0504,-331.822 146.0504,-331.822 152.0504,-337.822 152.0504,-343.822 152.0504,-343.822 152.0504,-377.822 152.0504,-377.822 152.0504,-383.822 146.0504,-389.822 140.0504,-389.822"/>
<text text-anchor="middle" x="76.0168" y="-356.022" font-family="Helvetica,sans-Serif" font-size="16.00" fill="#000000">07 - Linear Algebra</text>
</g>
<!-- node06 -->
<g id="node2" class="node">
<title>node06</title>
<ellipse fill="#ce93d8" stroke="#000000" stroke-width="2" cx="274.7815" cy="-149.822" rx="86.9964" ry="32.6206"/>
<text text-anchor="middle" x="274.7815" y="-154.622" font-family="Helvetica,sans-Serif" font-size="16.00" fill="#000000">06 - Probability</text>
<text text-anchor="middle" x="274.7815" y="-135.422" font-family="Helvetica,sans-Serif" font-size="16.00" fill="#000000">and Statistics</text>
</g>
<!-- node07&#45;&gt;node06 -->
<g id="edge1" class="edge">
<title>node07-&gt;node06</title>
<path fill="none" stroke="#2c3e50" stroke-width="2" d="M103.6542,-331.4834C138.3636,-294.6373 198.0731,-231.2523 236.9871,-189.9429"/>
<polygon fill="#2c3e50" stroke="#2c3e50" stroke-width="2" points="245.4397,-180.97 241.1421,-193.4075 241.6895,-185.6802 237.5754,-190.0476 237.2114,-189.7048 236.8475,-189.3619 240.9616,-184.9945 233.2808,-186.002 245.4397,-180.97 245.4397,-180.97"/>
</g>
<!-- node04 -->
<g id="node3" class="node">
<title>node04</title>
<ellipse fill="#fff176" stroke="#000000" stroke-width="2" cx="985.8609" cy="-255.822" rx="121.177" ry="46.2727"/>
<text text-anchor="middle" x="985.8609" y="-270.222" font-family="Helvetica,sans-Serif" font-size="16.00" fill="#000000">04 - Data Engineering</text>
<text text-anchor="middle" x="985.8609" y="-251.022" font-family="Helvetica,sans-Serif" font-size="16.00" fill="#000000">and</text>
<text text-anchor="middle" x="985.8609" y="-231.822" font-family="Helvetica,sans-Serif" font-size="16.00" fill="#000000">MLOps</text>
</g>
<!-- node07&#45;&gt;node04 -->
<!-- node01 -->
<g id="node4" class="node">
<title>node01</title>
<ellipse fill="#ef9a9a" stroke="#000000" stroke-width="2" cx="729.3668" cy="-182.822" rx="99.3118" ry="29"/>
<text text-anchor="middle" x="729.3668" y="-178.022" font-family="Helvetica,sans-Serif" font-size="16.00" fill="#000000">01 - Machine Learning</text>
</g>
<!-- node06&#45;&gt;node01 -->
<!-- node05 -->
<g id="node7" class="node">
<title>node05</title>
<ellipse fill="#ffab91" stroke="#000000" stroke-width="2" cx="477.3702" cy="-149.822" rx="79.682" ry="32.6206"/>
<text text-anchor="middle" x="477.3702" y="-154.622" font-family="Helvetica,sans-Serif" font-size="16.00" fill="#000000">05 - Business</text>
<text text-anchor="middle" x="477.3702" y="-135.422" font-family="Helvetica,sans-Serif" font-size="16.00" fill="#000000">Intelligence</text>
</g>
<!-- node06&#45;&gt;node05 -->
<g id="edge2" class="edge">
<title>node06-&gt;node05</title>
<path fill="none" stroke="#2c3e50" stroke-width="2" d="M361.5789,-149.822C369.4019,-149.822 377.3428,-149.822 385.2095,-149.822"/>
<polygon fill="#2c3e50" stroke="#2c3e50" stroke-width="2" points="397.4829,-149.822 385.483,-155.2221 391.483,-150.3221 385.483,-150.3221 385.4829,-149.8221 385.4829,-149.3221 391.4829,-149.3221 385.4829,-144.4221 397.4829,-149.822 397.4829,-149.822"/>
</g>
<!-- node04&#45;&gt;node01 -->
<g id="edge4" class="edge">
<title>node04-&gt;node01</title>
<path fill="none" stroke="#2c3e50" stroke-width="2" d="M865.8703,-248.6221C832.2228,-239.4521 797.8142,-227.5784 771.9606,-215.6522"/>
<polygon fill="#2c3e50" stroke="#2c3e50" stroke-width="2" points="761.0752,-210.3627 774.2286,-210.7505 766.6904,-212.5354 772.087,-215.1577 771.8685,-215.6074 771.6499,-216.0572 766.2533,-213.4348 769.5083,-220.4644 761.0752,-210.3627 761.0752,-210.3627"/>
</g>
<!-- node02 -->
<g id="node6" class="node">
<title>node02</title>
<ellipse fill="#9fa8da" stroke="#000000" stroke-width="2" cx="1229.7756" cy="-255.822" rx="86.6526" ry="29"/>
<text text-anchor="middle" x="1229.7756" y="-251.022" font-family="Helvetica,sans-Serif" font-size="16.00" fill="#000000">02 - Deep Learning</text>
</g>
<!-- node04&#45;&gt;node02 -->
<!-- node01&#45;&gt;node04 -->
<g id="edge8" class="edge">
<title>node01-&gt;node04</title>
<path fill="none" stroke="#66bb6a" stroke-width="2" stroke-dasharray="5,2" d="M828.5341,-184.6724C857.1464,-191.563 887.7971,-200.9118 914.3739,-210.9792"/>
<polygon fill="#66bb6a" stroke="#66bb6a" stroke-width="2" points="925.8851,-215.4901 912.7421,-216.1395 920.1163,-213.7665 914.5299,-211.5773 914.7123,-211.1117 914.8948,-210.6462 920.4811,-212.8354 916.6826,-206.084 925.8851,-215.4901 925.8851,-215.4901"/>
</g>
<!-- node03 -->
<g id="node5" class="node">
<title>node03</title>
<ellipse fill="#80cbc4" stroke="#000000" stroke-width="2" cx="985.8609" cy="-108.822" rx="81.0713" ry="29"/>
<text text-anchor="middle" x="985.8609" y="-104.022" font-family="Helvetica,sans-Serif" font-size="16.00" fill="#000000">03 - Case Studies</text>
</g>
<!-- node01&#45;&gt;node03 -->
<g id="edge5" class="edge">
<title>node01-&gt;node03</title>
<path fill="none" stroke="#2c3e50" stroke-width="2" d="M800.1339,-162.4053C834.6386,-152.4505 876.1425,-140.4764 911.1565,-130.3747"/>
<polygon fill="#2c3e50" stroke="#2c3e50" stroke-width="2" points="922.7625,-127.0263 912.7296,-135.5411 917.1362,-129.1699 911.3713,-130.8332 911.2327,-130.3527 911.0941,-129.8723 916.859,-128.2091 909.7358,-125.1644 922.7625,-127.0263 922.7625,-127.0263"/>
</g>
<!-- node03&#45;&gt;node02 -->
<g id="edge6" class="edge">
<title>node03-&gt;node02</title>
<path fill="none" stroke="#2c3e50" stroke-width="2" d="M1032.8389,-132.6204C1055.5881,-144.4894 1083.1249,-159.3684 1107.1993,-173.822 1132.6119,-189.0791 1160.1079,-207.3065 1182.6058,-222.6976"/>
<polygon fill="#2c3e50" stroke="#2c3e50" stroke-width="2" points="1192.5655,-229.5487 1179.6183,-227.1968 1187.3388,-226.5602 1182.3954,-223.1597 1182.6788,-222.7477 1182.9621,-222.3358 1187.9055,-225.7363 1185.7392,-218.2987 1192.5655,-229.5487 1192.5655,-229.5487"/>
</g>
<!-- node02&#45;&gt;node04 -->
<g id="edge7" class="edge">
<title>node02-&gt;node04</title>
<path fill="none" stroke="#42a5f5" stroke-width="2" stroke-dasharray="5,2" d="M1175.9201,-278.6643C1152.7561,-281.8359 1124.7676,-283.193 1097.475,-282.7355"/>
<polygon fill="#42a5f5" stroke="#42a5f5" stroke-width="2" points="1085.4221,-282.4132 1097.5623,-277.336 1091.4334,-282.0738 1097.4312,-282.2343 1097.4179,-282.7341 1097.4045,-283.2339 1091.4066,-283.0735 1097.2735,-288.1322 1085.4221,-282.4132 1085.4221,-282.4132"/>
</g>
<!-- node05&#45;&gt;node04 -->
<g id="edge3" class="edge">
<title>node05-&gt;node04</title>
<path fill="none" stroke="#ff9800" stroke-width="2" d="M511.6108,-179.684C540.8849,-203.1591 585.2917,-234.1076 630.211,-247.822 703.0688,-270.0664 788.2809,-272.7327 857.0289,-269.5229"/>
<polygon fill="#ff9800" stroke="#ff9800" stroke-width="2" points="869.2278,-268.8842 857.5266,-274.9043 863.2621,-269.6973 857.2703,-270.011 857.2442,-269.5117 857.218,-269.0124 863.2098,-268.6986 856.9618,-264.1191 869.2278,-268.8842 869.2278,-268.8842"/>
</g>
<!-- node05&#45;&gt;node03 -->
</g>
</svg>